<svg xmlns="http://www.w3.org/2000/svg" viewBox="0 0 152 24">
  <path fill="#d21414" fill-rule="evenodd" d="M83.34 3.32c1.91 0 3-.08 3.29-.08s.21 0 .21.18v.68c0 .13 0 .21-.24.21h-.5c-.53 0-.82.38-.64 1l3.89 12.43h.06c.21-.57 3.73-10.47 3.78-11.5a2.65 2.65 0 00-.47-1.42 1.11 1.11 0 00-.9-.49h-.56a.17.17 0 01-.19-.19v-.69c0-.13.06-.21.22-.21s1.16.08 3.44.08 3.23-.08 3.46-.08.19.08.19.24v.62c0 .13 0 .21-.19.21h-.92c-.53 0-.72.6-.58 1.05l3.81 12.44h.1c.8-2.37 3.82-11.25 3.82-12.73 0-.38-.27-.76-.9-.76h-.72c-.16 0-.18-.08-.18-.21v-.65c0-.13 0-.21.21-.21s1.16.08 2.8.08 2.28-.08 2.49-.08.16 0 .16.13v.73c0 .13 0 .21-.18.21h-.56a1.32 1.32 0 00-1.17.89c-.26.59-5.66 15.67-6.19 17-.11.27-.32.7-.69.7s-.55-.27-.66-.59L94 8.16h-.11c-.24.76-4.92 14-5 14.24a.77.77 0 01-.68.51.53.53 0 01-.53-.43l-5.92-17.2c-.27-.75-.69-1-1.12-1h-.74c-.1 0-.16-.08-.16-.19v-.7c0-.13.08-.18.22-.18s1.04.11 3.38.11zm43.31-.41a8.13 8.13 0 013.34.65.44.44 0 00.55-.08l.35-.35a.46.46 0 01.37-.16c.16 0 .21.16.21.43 0 .43.42 4.2.42 4.47a.17.17 0 01-.16.18l-.42.14c-.11 0-.21 0-.26-.16a7.81 7.81 0 00-1.65-2.86A3.44 3.44 0 00126.65 4a2.85 2.85 0 00-3 2.72 3.27 3.27 0 00.74 2.42 8.77 8.77 0 003.23 1.67 8.45 8.45 0 013.81 2.1 5.22 5.22 0 011.32 3.85c0 3.29-2.11 6-5.61 6a6.88 6.88 0 01-4.5-1.29c-.32-.22-.48-.33-.63-.33s-.27.22-.43.49-.26.32-.47.32-.32-.16-.32-.43.42-4.68.47-5c0-.16.06-.21.16-.21l.59.05c.1 0 .15.06.15.22a6.42 6.42 0 001 3.07 4.08 4.08 0 003.49 1.93 3.26 3.26 0 003.45-3.15c0-2.47-1.12-3.28-3.92-4.36a12.29 12.29 0 01-3.87-2.26A5.18 5.18 0 01121 8a4.58 4.58 0 011.85-3.76 5.35 5.35 0 013.8-1.33zm-8.65.33c.16 0 .22.1.22.24v.62a.2.2 0 01-.22.21h-1c-.59 0-1 .22-1 .73v.11c0 .83-.05 5.77-.05 6.36v2.14c0 .27.05 6.46.05 6.76 0 .86.42 1 1.06 1h1.11c.11 0 .21.05.21.19v.67c0 .16-.1.21-.26.21-.32 0-1.38-.08-3.87-.08-2.64 0-3.81.08-4.07.08s-.21-.05-.21-.18v-.73c0-.11 0-.16.21-.16h1.06c.53 0 1.11-.06 1.21-.78.05-.36.1-5.56.11-7.37v-2.19c0-.65 0-5.49-.08-5.84-.08-.65-.34-.92-1.09-.92H110c-.16 0-.21 0-.21-.19v-.7c0-.13.05-.18.16-.18.3 0 1.58.07 4 .08h.3c2.56 0 3.4-.08 3.75-.08zm30.44 0c.13 0 .19 0 .21.16.11.35 1.12 4 1.22 4.28s0 .24-.08.29l-.47.22c-.08 0-.16 0-.24-.14a26.26 26.26 0 00-2.91-3 4.59 4.59 0 00-2-.7l-4-.11-.07 7.76a30 30 0 003-.13 1.48 1.48 0 001.21-1 4.37 4.37 0 00.43-1.51.2.2 0 01.21-.22l.69.06c.1 0 .18 0 .16.21-.06.43-.06 2.21-.06 2.91 0 1.08.11 2.37.16 3 0 .14 0 .16-.21.19l-.58.11c-.11 0-.16 0-.21-.19a13.52 13.52 0 00-.43-1.35 1.63 1.63 0 00-1.32-1c-1-.1-2.23-.16-3.07-.16v1.62c0 1.45.08 4.09.08 4.57 0 1.4.48 1.94 1.06 2.1a8.15 8.15 0 002.07.22c.47 0 1.69-.06 2.22-.11a4.44 4.44 0 002.17-.91 37 37 0 002.46-2.86c.11-.13.19-.16.29-.1l.43.26c.08.06.1.14 0 .27l-1.27 4a.56.56 0 01-.58.4l-2.36-.05H135.59c-.55 0-.9.05-1.14.05s-.21-.05-.21-.21v-.65c0-.16 0-.21.26-.21h.9c1.22 0 1.32-.16 1.32-1.16v-9c0-2.21-.05-5.55-.1-5.93-.11-.72-.37-.94-1.17-.94h-1c-.11 0-.16 0-.16-.19v-.7c0-.13 0-.18.16-.18.58 0 1.53.1 3.7.08h.85l8.41-.06z" />
  <path fill="#232d4b" fill-rule="evenodd" d="M25.62 3.2c.27 0 1.57.08 4.35.08 2.34 0 3.61-.08 3.91-.08s.23.06.23.22v.7c0 .13 0 .19-.21.19H33a1.26 1.26 0 00-1.41 1.05c0 .29-.05 2.13-.05 3.5v1.78c0 1.43.11 4.85.13 5.71a5.69 5.69 0 00.85 3.21 4.19 4.19 0 003.32 1.51A5.27 5.27 0 0039 19.88a5.72 5.72 0 001.67-4.39v-4.15a51.4 51.4 0 00-.37-5.85c-.1-.7-.53-1.18-1-1.18h-.85c-.16 0-.19-.08-.19-.22v-.7c0-.13 0-.19.19-.19s1.49.08 3.29.08h6.51c2.76 0 4-.08 4.2-.08s.26.08.26.25v.61c0 .14 0 .25-.21.25h-1.15c-.64 0-1.14.29-1.14.64a4.25 4.25 0 00.08.92c.21 1 1.22 4.18 1.77 5.74l2 6h.11c.77-1.81 2.07-5.17 2.41-6.14.51-1.32 1.33-3.59 1.75-4.8a3.69 3.69 0 00.27-1.48 1 1 0 00-1.09-.89h-.82c-.11 0-.13-.08-.13-.25v-.66c0-.13 0-.19.16-.19s1.46.08 3.23.08c2.47 0 3.14-.08 3.37-.08s.19.06.19.25v.67c0 .11 0 .19-.19.19h-.61a2.29 2.29 0 00-2 1.4c-1.06 1.83-2.2 5-3.21 7.27-.67 1.46-3.66 8.68-4.12 9.46-.18.33-.31.46-.61.46s-.45-.32-.61-.67c-1-2.13-3.39-8.65-4.14-10.51S46 6 45.69 5.2s-.58-.89-1.14-.89h-1a1.06 1.06 0 00-1.15 1v4.61c0 .85-.06 5-.13 6A7.26 7.26 0 0140 21.1a7.24 7.24 0 01-4.69 1.67 11.25 11.25 0 01-4.06-.68 6.09 6.09 0 01-3.08-3.55c-.46-1.16-.56-3-.56-6.5V5.68c0-.94-.19-1.37-.74-1.37h-1.3c-.16 0-.19-.06-.19-.25v-.64c0-.16.03-.22.24-.22zm43.86-.83c.15 0 .21.16.29.45.5 1.7 2.57 7.74 3.08 9.46.61 2.11 2.33 7.12 2.7 7.85a2 2 0 001.54 1.21H78c.16 0 .19.11.19.24v.51c0 .16 0 .35-.24.35-.5 0-1.06-.08-4.46-.08h-.29c-2 0-2.87.08-3.38.08-.27 0-.29-.16-.29-.35v-.51c0-.13 0-.24.16-.24h.74c.72 0 1-.27.8-1C71 19.4 70 16 69.63 15h-5.81a33.2 33.2 0 00-1.51 5.12c0 .59.24 1.24 1 1.24h.93c.27 0 .29.11.29.21v.6c0 .21 0 .29-.23.29s-1.44-.08-3.61-.08h-.25c-1.74 0-2.29.08-2.65.08-.16 0-.18-.16-.18-.35v-.51c0-.16 0-.24.18-.24h.69a2.23 2.23 0 001.81-1.19c.37-.56 2.25-5.25 3.13-7.62.21-.54 2.36-6.34 2.6-7.06a1.13 1.13 0 000-.92c-.08-.11-.19-.24-.19-.35S66 4 66.16 4a8.26 8.26 0 003-1.35c.1-.18.18-.28.32-.28zm-2.37 3.8c-.16 0-.24.1-.32.35s-2.41 6.71-2.62 7.38h5.23l-2-7.14c-.1-.4-.15-.59-.29-.59z" />
  <path fill="#d21414" fill-rule="evenodd" d="M4.89 20.17v2.13H1v-2.13zm16.47 0v2.13h-3.89v-2.13zm-15.21 0l-.15.34h-.5l.41.27-.16.45.44-.23.4.27-.16-.45.41-.27h-.5l-.11-.34h9.87l-.11.34h-.5l.4.27-.15.45.4-.27.41.27-.16-.45.41-.27h-.5l-.12-.34h.69v2.09h-5.34l-.11-.3.4-.28h-.5l-.15-.45-.17.43h-.49l.4.28-.11.32H5.49v-2.13zm2.42.83l-.15.45h-.5l.41.28-.16.45.4-.28.41.28-.16-.45.41-.28h-.5zm5.11 0l-.15.45H13l.4.28-.15.45.4-.28.41.28-.16-.45.41-.28h-.5zm.79-10v8.52h-1.79V11zM4 19.27l.39.29H3.6zM4.89 11v8.52h-.52l-.15-.47.39-.29h-.48L4 18.32l-.14.48h-.5l.39.29-.15.47H1v-7l.37-.27.38.29-.15-.48.4-.28h-.49l-.14-.48-.07.22-.1.26H1V11zm7.19 0v8.52h-1.8V11zm-2.4 0v8.52H7.89V11zm-2.39 0v8.52h-1.8V11zm9.58 0v8.52h-1.8V11zm4.49 0v.78h-.19l-.17-.44-.15.48h-.49l.4.29-.15.48.39-.29.34.25v1.88h-.44l-.15-.43-.15.48h-.48l.39.29-.15.48.39-.3.4.3-.15-.53.37-.27v5.11h-2.62l-.15-.47.4-.29h-.49l-.15-.48-.15.48h-.48l.39.29-.15.47h-.5V11zm-3 8.23l.39.29H18zM2.57 16.36l-.15.48h-.48l.39.3-.15.47.39-.29.39.29-.15-.47.39-.3h-.48zm17.23 0l-.15.48h-.49l.39.3-.15.47.4-.29.39.29-.19-.47.39-.3h-.49zM1.63 14l-.15.48H1l.39.29-.15.48.39-.3.38.3-.15-.48.39-.29h-.48zm9.83-6.56l4.81 3H6.39zm-1.18 0l-5.08 3H1v-3zm11.08 0v3h-4.2l-4.78-3zM11.11 1a10.29 10.29 0 019 5.46h-18a10.27 10.27 0 019-5.46z" />
</svg>
