<?xml version="1.0" standalone="no"?>
<!DOCTYPE svg PUBLIC "-//W3C//DTD SVG 20010904//EN"
 "http://www.w3.org/TR/2001/REC-SVG-20010904/DTD/svg10.dtd">
<svg version="1.0" xmlns="http://www.w3.org/2000/svg"
 width="32.000000pt" height="32.000000pt" viewBox="0 0 32.000000 32.000000"
 preserveAspectRatio="xMidYMid meet">

<g transform="translate(0.000000,32.000000) scale(0.100000,-0.100000)"
fill="#000000" stroke="none">
<path d="M118 313 c-51 -13 18 -37 73 -26 30 6 31 7 14 20 -18 13 -52 15 -87
6z"/>
<path d="M20 228 c-21 -47 -25 -78 -10 -78 12 0 36 46 45 88 10 47 -12 41 -35
-10z"/>
<path d="M263 237 c7 -47 36 -92 50 -78 13 13 -21 102 -42 109 -11 4 -13 -3
-8 -31z"/>
<path d="M120 220 c-34 -27 -34 -28 -21 -69 l12 -42 46 3 c44 3 47 5 60 43 13
37 12 40 -9 58 -46 36 -52 37 -88 7z"/>
<path d="M20 92 c0 -30 79 -90 101 -76 13 8 -25 50 -63 70 -31 16 -38 17 -38
6z"/>
<path d="M255 86 c-41 -18 -72 -53 -58 -67 21 -21 98 34 91 65 -3 12 -8 13
-33 2z"/>
</g>
</svg>
